# xmcd
#
# Track frame offsets: 
#        150
#        17405
#        42561
#        68042
#        110705
#        135964
#        154705
#        169375
#        180857
#        208127
#        217641
#        227176
#        242886
#        250303
#        281552
#        293871
#        307341
#        333033
#
# Disc length: 4586 seconds
#
# Revision: 0
# Processed by: cddbd v1.5.2PL0 Copyright (c) Steve Scherf et al.
# Submitted via: ExactAudioCopy v1.0b1
#
DISCID=0411e812
DTITLE=Beyonce - Live at Wynn Las Vegas - Audio Cd
DYEAR=2008
DGENRE=R&B
TTITLE0=Hello
TTITLE1=Halo
TTITLE2=Irreplaceable
TTITLE3=Sweet Dreams Medley
TTITLE4=If I Were A Boy
TTITLE5=Scared Of Lonely
TTITLE6=That's Why You're Beautiful
TTITLE7=Satellites
TTITLE8=Resentment
TTITLE9=Deja Vu Jazz Medley
TTITLE10=Deja Vu
TTITLE11=Work It Out
TTITLE12='03 Bonnie and Clyde
TTITLE13=Crazy In Love
TTITLE14=Naughty Girl
TTITLE15=Get Me Bodied
TTITLE16=Single Ladies (Put A Ring On It) Medley
TTITLE17=Finale
EXTD=
EXTT0=
EXTT1=
EXTT2=
EXTT3=
EXTT4=
EXTT5=
EXTT6=
EXTT7=
EXTT8=
EXTT9=
EXTT10=
EXTT11=
EXTT12=
EXTT13=
EXTT14=
EXTT15=
EXTT16=
EXTT17=
PLAYORDER=
